<?xml version="1.0" encoding="utf-8"?>
<!-- Generator: Adobe Illustrator 18.1.1, SVG Export Plug-In . SVG Version: 6.00 Build 0)  -->
<svg version="1.1" id="Layer_1" xmlns="http://www.w3.org/2000/svg" xmlns:xlink="http://www.w3.org/1999/xlink" x="0px" y="0px"
	 width="100px" height="120.3px" viewBox="0 0 100 120.3" enable-background="new 0 0 100 120.3" xml:space="preserve">
<g>
	<g>
		<path d="M93.1,34.9c-3.8,0-6.9,3.1-6.9,6.9V73c0,3.8,3.1,6.9,6.9,6.9c3.8,0,6.9-3.1,6.9-6.9V41.8C100,38,96.9,34.9,93.1,34.9z"/>
		<path d="M6.9,34.9C3.1,34.9,0,38,0,41.8V73C0,76.9,3.1,80,6.9,80c3.8,0,6.9-3.1,6.9-6.9V41.8C13.9,38,10.8,34.9,6.9,34.9z"/>
		<path d="M65.7,8.8l5.6-7.9c0.1-0.2-0.1-0.5-0.4-0.7c-0.3-0.2-0.7-0.3-0.8-0.1l-5.8,8.1C60.5,6.7,55.8,5.8,50,5.7
			c-5.8,0-10.6,0.9-14.5,2.4l-5.7-8C29.7-0.1,29.4,0,29,0.2c-0.3,0.2-0.5,0.5-0.4,0.7l5.5,7.8c-16.1,7.1-16.6,24.6-16.6,24.6h64.7
			C82.4,33.3,81.7,16,65.7,8.8z M35.8,23.1c-2.2,0-3.9-1.7-3.9-3.9c0-2.2,1.7-3.9,3.9-3.9c2.2,0,3.9,1.7,3.9,3.9
			C39.7,21.3,37.9,23.1,35.8,23.1z M64.2,23.1c-2.2,0-3.9-1.7-3.9-3.9c0-2.2,1.7-3.9,3.9-3.9c2.2,0,3.9,1.7,3.9,3.9
			C68.1,21.3,66.4,23.1,64.2,23.1z"/>
		<path d="M21.3,37.1h-4V64h0.1v28.2c0,2.2,1.7,3.9,3.9,3.9h8.3v17.3c0,3.8,3.1,6.9,6.9,6.9c3.8,0,6.9-3.1,6.9-6.9V96.1h12.9v17.3
			c0,3.8,3.1,6.9,6.9,6.9c3.8,0,6.9-3.1,6.9-6.9V96.1h8.3c2.2,0,3.9-1.7,3.9-3.9V64h0.1V37.1h-4H21.3z"/>
	</g>
</g>
</svg>
