<?xml version="1.0" encoding="utf-8"?>
<!-- Generator: Adobe Illustrator 18.1.1, SVG Export Plug-In . SVG Version: 6.00 Build 0)  -->
<svg version="1.1" id="Layer_1" xmlns="http://www.w3.org/2000/svg" xmlns:xlink="http://www.w3.org/1999/xlink" x="0px" y="0px"
	 width="100px" height="122.8px" viewBox="0 0 100 122.8" enable-background="new 0 0 100 122.8" xml:space="preserve">
<g>
	<path d="M83.5,65.2c-0.2-15.5,12.7-23,13.2-23.4c-7.2-10.5-18.5-12-22.5-12.1c-9.6-1-18.6,5.7-23.5,5.7c-4.8,0-12.3-5.5-20.3-5.3
		c-10.4,0.2-20,6.1-25.4,15.4C-5.7,64.2,2.4,92,13,107.3c5.2,7.4,11.3,15.8,19.4,15.5c7.8-0.3,10.7-5,20.1-5.1
		c9.4,0,12.1,5,20.3,4.8c8.4-0.2,13.7-7.6,18.8-15.1c5.9-8.7,8.3-17,8.5-17.5C99.8,89.9,83.7,83.8,83.5,65.2"/>
	<path d="M68.1,19.6c4.3-5.2,7.2-12.4,6.4-19.6c-6.2,0.3-13.7,4.1-18.1,9.3c-4,4.6-7.5,11.9-6.5,19C56.7,28.8,63.8,24.8,68.1,19.6"
		/>
</g>
</svg>
