<?xml version="1.0" encoding="utf-8"?>
<!-- Generator: Adobe Illustrator 18.1.1, SVG Export Plug-In . SVG Version: 6.00 Build 0)  -->
<svg version="1.1" id="Layer_1" xmlns="http://www.w3.org/2000/svg" xmlns:xlink="http://www.w3.org/1999/xlink" x="0px" y="0px"
	 width="345.1px" height="345.8px" viewBox="0 0 345.1 345.8" enable-background="new 0 0 345.1 345.8" xml:space="preserve">
<path d="M163.3,91.9h161.3c-20.7-36.5-49.9-62.8-86.8-78.2C207.4,1,181.4,0,174.2,0c-1.2,0-1.8,0-1.8,0
	C119.3,2.1,83.2,22.8,62.4,39.8C44,54.7,33.8,69.5,30.5,74.7c6.7,11.6,39.7,69.1,59.1,102.6c-1.2-20,5.1-33.1,10.9-45.1l0.4-0.8
	l0.2-0.3C127.9,93,159.5,91.9,163,91.9C163.2,91.9,163.3,91.9,163.3,91.9z"/>
<path d="M286.3,303c24.7-21.3,36.1-42.9,36.2-43.1c24.8-47.2,24.8-88.8,20.5-115.4c-3.8-23.3-11.4-39.3-14.2-44.7
	c-10.9,0-57.4-0.1-94.8-0.1c-9,0-16.9,0-23.6,0c17.9,9,26.1,21,33.6,32l0.5,0.7l0.1,0.3c20.2,43.6,4,71.6,2.8,73.5
	c-1.5,2.5-61.2,105.9-80.7,139.7c0.5,0,1,0,1.5,0C224.7,345.8,263.6,322.5,286.3,303z"/>
<path d="M171.5,256.4c-47.8-4.3-64-32.3-65.1-34.3c-1.5-2.5-61.1-106-80.6-139.7c-12.1,20.6-20,42.1-23.6,64.1
	c-3.1,19.3-3,38.9,0.5,58.5c5.9,33.4,19.5,55.1,19.7,55.3c22.2,35.2,51.4,60.2,86.8,74.4c23.4,9.4,42.4,10.9,48.7,11.1
	c6.7-11.6,40-69,59.3-102.5c-16.7,11.1-31.3,12.1-44.5,13.1l-0.9,0.1L171.5,256.4z"/>
<path d="M171.7,112.8c-33.9,0-61.6,27.6-61.6,61.6c0,33.9,27.6,61.6,61.6,61.6c33.9,0,61.6-27.6,61.6-61.6
	C233.3,140.4,205.6,112.8,171.7,112.8z"/>
</svg>
