<?xml version="1.0" encoding="utf-8"?>
<!-- Generator: Adobe Illustrator 18.1.1, SVG Export Plug-In . SVG Version: 6.00 Build 0)  -->
<svg version="1.1" id="Layer_1" xmlns="http://www.w3.org/2000/svg" xmlns:xlink="http://www.w3.org/1999/xlink" x="0px" y="0px"
	 width="950.2px" height="390.6px" viewBox="0 0 950.2 390.6" enable-background="new 0 0 950.2 390.6" xml:space="preserve">
<g>
	<g>
		<path fill="#FFFFFF" d="M427.2,233c-6.1-4.2-14.3-6.8-22.1-6.8c-11.4,0-22.6,4.4-27.6,10.5c-0.2-3.5-0.9-6.6-2-10.5l-26.1,4.6
			c1.5,9.4,1.8,13.6,1.8,28.3v129.8l28.3-7.5v-35.1c0-3.3,0-6.6-0.4-9.2c6.4,3.7,14.7,5.9,23.5,5.9c12.3,0,22.4-4.6,30-12.7
			c11.6-12.5,15.6-24.8,15.6-48.9C448,255.6,439.3,241.1,427.2,233z M395.9,319.9c-5.9,0-12.3-3.3-16.2-6.6v-54.6
			c5.3-5.5,12.3-8.6,19.5-8.6s11.8,3.3,14,9.4c2,5.5,2.9,14,2.9,24.8C416,310,410.3,319.9,395.9,319.9z"/>
		<path fill="#FFFFFF" d="M491.2,241.8c-0.4-6.4-2-11.4-4.6-16l-26.3,7c2.4,6.4,4.2,17.8,4.2,32.9v75h29.4v-79.4
			c5.5-6.4,11.4-9.4,18-9.4c3.3,0,5.7,0.7,8.6,2.2l8.1-25.9c-4.6-2-6.6-2.4-11-2.4C506.5,225.8,497.5,233.3,491.2,241.8z"/>
		<polygon fill="#FFFFFF" points="540.9,340.7 570.3,340.7 570.3,225.8 540.9,230.4 		"/>
		<path fill="#FFFFFF" d="M556,179.3c-10.1,0-18.4,8.1-18.4,18.2s8.1,18.2,18,18.2c10.1,0,18.2-8.1,18.2-18.2S565.9,179.3,556,179.3
			z"/>
		<path fill="#FFFFFF" d="M649.1,273.4l-13.6-3.5c-10.3-2.6-14-5.7-14-11.4c0-6.6,5.7-11,14.3-11c8.3,0,16.4,2.4,27.6,8.1l9.6-19.7
			c-10.3-5-22.1-10.5-40.1-10.5c-26.1,0-43.4,14.7-43.4,36.6c0,7.2,2.4,15.3,6.4,20.2c3.9,4.8,13.2,10.1,20.6,11.4l13.2,2.4
			c11.8,2.2,17.3,6.1,17.3,13.8c0,7.2-6.6,12.7-14.9,12.7c-12.7,0-28.3-7.2-37.3-12.7l-10.5,21.5c16.4,8.6,31.6,12.9,45.4,12.9
			c28.7,0,48-15.8,48-39c0-7.5-2-13.8-6.1-19.1C667.6,281.1,663,276.9,649.1,273.4z"/>
		<path fill="#FFFFFF" d="M827.1,233.5c-5-4.4-13.4-7-22.1-7c-12.3,0-21.5,4.2-31.8,14.7c-1.3-2-2.9-3.9-4.4-5.5
			c-5.9-6.1-13.6-9.2-22.8-9.2c-10.3,0-19.7,3.9-27.4,11.4c-1.1-5.7-2-8.3-3.9-11.4l-26.5,7.2c3.1,5.5,4.2,12.5,4.2,28.7v78.3H721
			v-81.8c6.4-5.7,13.8-8.6,19.3-8.6c8.1,0,10.1,3.3,10.1,17.3v73h27.8V260c6.4-5.7,14-9.4,19.5-9.4c7.7,0,9.2,2.6,9.2,16v74.1h28.5
			v-79.8C835.5,245.5,833.5,239,827.1,233.5z"/>
		<path fill="#FFFFFF" d="M427.2,54.8c-6.1-4.2-14.3-6.8-22.1-6.8c-11.4,0-22.6,4.4-27.6,10.5c-0.2-3.5-0.9-6.6-2-10.5l-26.1,4.6
			c1.5,9.4,1.8,13.6,1.8,28.3v129.8l28.3-7.5v-35.1c0-3.3,0-6.6-0.4-9.2c6.4,3.7,14.7,5.9,23.5,5.9c12.3,0,22.4-4.6,30-12.7
			c11.6-12.5,15.6-24.8,15.6-48.9C448,77.4,439.3,62.9,427.2,54.8z M395.9,141.7c-5.9,0-12.3-3.3-16.2-6.6V80.5
			c5.3-5.5,12.3-8.6,19.5-8.6c7.2,0,11.8,3.3,14,9.4c2,5.5,2.9,14,2.9,24.8C416,131.8,410.3,141.7,395.9,141.7z"/>
		<path fill="#FFFFFF" d="M512.5,165.6c15.8,0,29.4-5,42.3-15.6l-11.4-17.5c-9,7.5-18.4,11.2-28.5,11.2c-15.1,0-23.7-9.9-23.7-27.2
			v-0.9h64.9v-6.8c0-23.5-4.6-38.6-14.9-49.1c-7.2-7.5-19.5-11.8-32.5-11.8c-14.9,0-26.1,4.8-35.3,15.1c-9.9,11-14,24.3-14,44.5
			C459.4,142.7,480.3,165.6,512.5,165.6z M491.7,93.6c0-15.6,6.4-24.3,17.5-24.3c5.9,0,10.1,2.2,12.9,6.6c2.6,4.2,3.5,8.6,3.5,16.9
			v1.3h-34V93.6z"/>
		<path fill="#FFFFFF" d="M570.7,162.5h26.3c2-3.1,2.2-4.2,3.1-8.1c6.4,7,14,10.3,25,10.3c9.2,0,16.9-2.6,24.6-8.8
			c13.8-11,20.8-28.7,20.8-51.5c0-35.1-17.1-57-44.5-57c-10.3,0-18.2,2.9-23.9,9c0.4-1.8,0.7-6.6,0.7-9.9V20c0-7.7-0.2-12.3-1.1-20
			l-30,7c1.5,6.4,2,13.8,2,27.6v103.9C573.6,154.1,572.9,157.4,570.7,162.5z M603.2,80.7c3.7-4.2,9-9,16.7-9s13.8,4.6,16,14.3
			c1.1,4.8,1.3,9,1.3,19.1c0,13.8-0.7,19.7-3.3,25.9c-2.4,5.9-7,8.8-14.3,8.8c-7.9,0-12.5-3.7-16.4-7.2V80.7z"/>
		<path fill="#FFFFFF" d="M686.1,162.5h26.3c2-3.1,2.2-4.2,3.1-8.1c6.4,7,14,10.3,25,10.3c9.2,0,16.9-2.6,24.6-8.8
			c13.8-11,20.8-28.7,20.8-51.5c0-35.1-17.1-57-44.5-57c-10.3,0-18.2,2.9-23.9,9c0.4-1.8,0.7-6.6,0.7-9.9V20c0-7.7-0.2-12.3-1.1-20
			l-30,7c1.5,6.4,2,13.8,2,27.6v103.9C689,154.1,688.3,157.4,686.1,162.5z M718.6,80.7c3.7-4.2,9-9,16.7-9s13.8,4.6,16,14.3
			c1.1,4.8,1.3,9,1.3,19.1c0,13.8-0.7,19.7-3.3,25.9c-2.4,5.9-7,8.8-14.3,8.8c-7.9,0-12.5-3.7-16.4-7.2V80.7z"/>
		<path fill="#FFFFFF" d="M842,144.9c-2.4,0-4.8-1.1-5.9-3.1c-1.8-3.1-2-5.7-2-25V29.4c0-15.8-0.4-23-1.5-29.2l-30,6.8
			c1.1,10.1,1.5,19.1,1.5,33.8v83.8c0,16,0.4,19.5,2.6,25.2c3.5,9.4,13.6,15.3,26.1,15.3c6.4,0,12.5-1.1,17.5-3.1l-5-17.5
			C843.8,144.9,843.1,144.9,842,144.9z"/>
		<path fill="#FFFFFF" d="M950.2,115.6v-6.8c0-23.5-4.6-38.6-14.9-49.1c-7.2-7.5-19.5-11.8-32.5-11.8c-14.9,0-26.1,4.8-35.3,15.1
			c-9.9,11-14,24.3-14,44.5c0,35.3,20.8,58.1,53.1,58.1c15.8,0,29.4-5,42.3-15.6l-11.4-17.5c-9,7.5-18.4,11.2-28.5,11.2
			c-15.1,0-23.7-9.9-23.7-27.2v-0.9H950.2z M885.7,93.6c0-15.6,6.4-24.3,17.5-24.3c5.9,0,10.1,2.2,12.9,6.6
			c2.6,4.2,3.5,8.6,3.5,16.9v1.3h-34V93.6z"/>
	</g>
</g>
<path opacity="0.2" fill="#FFFFFF" d="M196.9,108.7c20.6,15.5,35.8,54.3,38.1,101c-13.2-10-34.3-22.2-58-22.2s-44.7,12.2-58,22.2
	c1.2-23.9,5.8-45.7,12.7-63.4L0,222.4l131.8,76.1c-6.9-17.7-11.5-39.5-12.7-63.4c13.2,10,34.3,22.2,58,22.2s44.7-12.2,58-22.2
	c-2.3,46.7-17.5,85.6-38.1,101l94.4,54.5V54.1L196.9,108.7z"/>
</svg>
